<svg version="1.1" xmlns="http://www.w3.org/2000/svg" viewBox="1.3105458749999999 -6.974610375 249.556642625 28.974611375000002" fill="none" stroke="black" stroke-width="0.6%" vector-effect="non-scaling-stroke">
    <path d="M 17.60938 19.90625 L 17.60938 0 L 14.9707 0 L 4.94922 15.33984 L 4.94922 0 L 2.31055 0 L 2.31055 19.90625 L 4.94922 19.90625 L 14.99805 4.49805 L 14.99805 19.90625 L 17.60938 19.90625 Z" />
    <path d="M 21.20508 7.35547 L 21.20508 7.5332 Q 21.21 9.71 22.05957 11.44336 Q 22.91 13.18 24.43848 14.12305 Q 25.96 15.07 27.91797 15.06641 Q 30.94 15.07 32.80566 12.97461 Q 34.67 10.88 34.67188 7.41016 L 34.67188 7.23242 Q 34.67 5.07 33.84473 3.35645 Q 33.02 1.64 31.47949 0.68359 Q 29.94 -0.27 27.94531 -0.27344 Q 24.94 -0.27 23.07129 1.81836 Q 21.21 3.91 21.20508 7.35547 Z" />
    <path d="M 21.20508 7.5332 Q 21.21 9.71 22.05957 11.44336 Q 22.91 13.18 24.43848 14.12305 Q 25.96 15.07 27.91797 15.06641 Q 30.94 15.07 32.80566 12.97461 Q 34.67 10.88 34.67188 7.41016" />
    <path d="M 34.67188 7.23242 Q 34.67 5.07 33.84473 3.35645 Q 33.02 1.64 31.47949 0.68359 Q 29.94 -0.27 27.94531 -0.27344 Q 24.94 -0.27 23.07129 1.81836 Q 21.21 3.91 21.20508 7.35547" />
    <path d="M 23.74805 7.23242 Q 23.75 4.77 24.88965 3.28125 Q 26.03 1.79 27.94531 1.79102 Q 29.87 1.79 31.00781 3.30176 Q 32.14 4.81 32.14258 7.5332 Q 32.14 9.97 30.9873 11.47754 Q 29.83 12.99 27.91797 12.98828 Q 26.04 12.99 24.89648 11.49805 Q 23.75 10.01 23.74805 7.23242 Q 23.75 4.77 24.88965 3.28125 Q 26.03 1.79 27.94531 1.79102 Q 29.87 1.79 31.00781 3.30176 Q 32.14 4.81 32.14258 7.5332 Q 32.14 9.97 30.9873 11.47754 Q 29.83 12.99 27.91797 12.98828 Q 26.04 12.99 24.89648 11.49805 Q 23.75 10.01 23.74805 7.23242 Z" />
    <path d="M 44.10547 7.35547 L 44.10547 7.5332 Q 44.11 9.71 44.95996 11.44336 Q 45.81 13.18 47.33887 14.12305 Q 48.86 15.07 50.81836 15.06641 Q 53.84 15.07 55.70605 12.97461 Q 57.57 10.88 57.57227 7.41016 L 57.57227 7.23242 Q 57.57 5.07 56.74512 3.35645 Q 55.92 1.64 54.37988 0.68359 Q 52.84 -0.27 50.8457 -0.27344 Q 47.84 -0.27 45.97168 1.81836 Q 44.11 3.91 44.10547 7.35547 Z" />
    <path d="M 44.10547 7.5332 Q 44.11 9.71 44.95996 11.44336 Q 45.81 13.18 47.33887 14.12305 Q 48.86 15.07 50.81836 15.06641 Q 53.84 15.07 55.70605 12.97461 Q 57.57 10.88 57.57227 7.41016" />
    <path d="M 57.57227 7.23242 Q 57.57 5.07 56.74512 3.35645 Q 55.92 1.64 54.37988 0.68359 Q 52.84 -0.27 50.8457 -0.27344 Q 47.84 -0.27 45.97168 1.81836 Q 44.11 3.91 44.10547 7.35547" />
    <path d="M 46.64844 7.23242 Q 46.65 4.77 47.79004 3.28125 Q 48.93 1.79 50.8457 1.79102 Q 52.77 1.79 53.9082 3.30176 Q 55.04 4.81 55.04297 7.5332 Q 55.04 9.97 53.8877 11.47754 Q 52.73 12.99 50.81836 12.98828 Q 48.95 12.99 47.79688 11.49805 Q 46.65 10.01 46.64844 7.23242 Q 46.65 4.77 47.79004 3.28125 Q 48.93 1.79 50.8457 1.79102 Q 52.77 1.79 53.9082 3.30176 Q 55.04 4.81 55.04297 7.5332 Q 55.04 9.97 53.8877 11.47754 Q 52.73 12.99 50.81836 12.98828 Q 48.95 12.99 47.79688 11.49805 Q 46.65 10.01 46.64844 7.23242 Z" />
    <path d="M 69.93164 0 L 69.87695 1.46289 Q 68.4 -0.27 65.54297 -0.27344 Q 63.18 -0.27 61.94043 1.10059 Q 60.7 2.47 60.68945 5.16797 L 60.68945 14.79297 L 63.21875 14.79297 L 63.21875 5.23633 Q 63.22 1.87 65.95313 1.87305 Q 68.85 1.87 69.80859 4.0332 L 69.80859 14.79297 L 72.33789 14.79297 L 72.33789 0 L 69.93164 0 Z" />
    <path d="M 69.87695 1.46289 Q 68.4 -0.27 65.54297 -0.27344 Q 63.18 -0.27 61.94043 1.10059 Q 60.7 2.47 60.68945 5.16797" />
    <path d="M 63.21875 5.23633 Q 63.22 1.87 65.95313 1.87305 Q 68.85 1.87 69.80859 4.0332" />
    <path d="M 77.08203 18.375 L 79.61133 18.375 L 79.61133 14.79297 L 82.37305 14.79297 L 82.37305 12.83789 L 79.61133 12.83789 L 79.61133 3.66406 Q 79.61 2.78 79.98047 2.33105 Q 80.35 1.89 81.23828 1.88672 Q 81.68 1.89 82.44141 2.05078 L 82.44141 0 Q 81.44 -0.27 80.5 -0.27344 Q 78.8 -0.27 77.94336 0.75195 Q 77.08 1.78 77.08203 3.66406 L 77.08203 12.83789 L 74.38867 12.83789 L 74.38867 14.79297 L 77.08203 14.79297 L 77.08203 18.375 Z" />
    <path d="M 79.61133 3.66406 Q 79.61 2.78 79.98047 2.33105 Q 80.35 1.89 81.23828 1.88672 Q 81.68 1.89 82.44141 2.05078" />
    <path d="M 82.44141 0 Q 81.44 -0.27 80.5 -0.27344 Q 78.8 -0.27 77.94336 0.75195 Q 77.08 1.78 77.08203 3.66406" />
    <path d="M 97.82227 7.46484 L 97.82227 7.23242 Q 97.82 3.86 96.27734 1.79102 Q 94.73 -0.27 92.09375 -0.27344 Q 89.4 -0.27 87.85547 1.43555 L 87.85547 -5.6875 L 85.32617 -5.6875 L 85.32617 14.79297 L 87.63672 14.79297 L 87.75977 13.15234 Q 89.3 15.07 92.05273 15.06641 Q 94.72 15.07 96.27051 13.05664 Q 97.82 11.05 97.82227 7.46484 Z" />
    <path d="M 97.82227 7.23242 Q 97.82 3.86 96.27734 1.79102 Q 94.73 -0.27 92.09375 -0.27344 Q 89.4 -0.27 87.85547 1.43555" />
    <path d="M 87.75977 13.15234 Q 89.3 15.07 92.05273 15.06641 Q 94.72 15.07 96.27051 13.05664 Q 97.82 11.05 97.82227 7.46484" />
    <path d="M 95.29297 7.51953 Q 95.29 10.02 94.22656 11.4707 Q 93.16 12.92 91.30078 12.91992 Q 89 12.92 87.85547 10.88281 L 87.85547 3.81445 Q 88.99 1.79 91.32813 1.79102 Q 93.15 1.79 94.21973 3.2334 Q 95.29 4.68 95.29297 7.51953 Q 95.29 10.02 94.22656 11.4707 Q 93.16 12.92 91.30078 12.91992 Q 89 12.92 87.85547 10.88281" />
    <path d="M 87.85547 3.81445 Q 88.99 1.79 91.32813 1.79102 Q 93.15 1.79 94.21973 3.2334 Q 95.29 4.68 95.29297 7.51953" />
    <path d="M 110.22266 0 L 110.16797 1.46289 Q 108.69 -0.27 105.83398 -0.27344 Q 103.47 -0.27 102.23145 1.10059 Q 100.99 2.47 100.98047 5.16797 L 100.98047 14.79297 L 103.50977 14.79297 L 103.50977 5.23633 Q 103.51 1.87 106.24414 1.87305 Q 109.14 1.87 110.09961 4.0332 L 110.09961 14.79297 L 112.62891 14.79297 L 112.62891 0 L 110.22266 0 Z" />
    <path d="M 110.16797 1.46289 Q 108.69 -0.27 105.83398 -0.27344 Q 103.47 -0.27 102.23145 1.10059 Q 100.99 2.47 100.98047 5.16797" />
    <path d="M 103.50977 5.23633 Q 103.51 1.87 106.24414 1.87305 Q 109.14 1.87 110.09961 4.0332" />
    <path d="M 117.37305 18.375 L 119.90234 18.375 L 119.90234 14.79297 L 122.66406 14.79297 L 122.66406 12.83789 L 119.90234 12.83789 L 119.90234 3.66406 Q 119.9 2.78 120.27148 2.33105 Q 120.64 1.89 121.5293 1.88672 Q 121.97 1.89 122.73242 2.05078 L 122.73242 0 Q 121.73 -0.27 120.79102 -0.27344 Q 119.1 -0.27 118.23438 0.75195 Q 117.37 1.78 117.37305 3.66406 L 117.37305 12.83789 L 114.67969 12.83789 L 114.67969 14.79297 L 117.37305 14.79297 L 117.37305 18.375 Z" />
    <path d="M 119.90234 3.66406 Q 119.9 2.78 120.27148 2.33105 Q 120.64 1.89 121.5293 1.88672 Q 121.97 1.89 122.73242 2.05078" />
    <path d="M 122.73242 0 Q 121.73 -0.27 120.79102 -0.27344 Q 119.1 -0.27 118.23438 0.75195 Q 117.37 1.78 117.37305 3.66406" />
    <path d="M 133.45117 18.375 L 135.98047 18.375 L 135.98047 14.79297 L 138.74219 14.79297 L 138.74219 12.83789 L 135.98047 12.83789 L 135.98047 3.66406 Q 135.98 2.78 136.34961 2.33105 Q 136.72 1.89 137.60742 1.88672 Q 138.04 1.89 138.81055 2.05078 L 138.81055 0 Q 137.81 -0.27 136.86914 -0.27344 Q 135.17 -0.27 134.3125 0.75195 Q 133.45 1.78 133.45117 3.66406 L 133.45117 12.83789 L 130.75781 12.83789 L 130.75781 14.79297 L 133.45117 14.79297 L 133.45117 18.375 Z" />
    <path d="M 135.98047 3.66406 Q 135.98 2.78 136.34961 2.33105 Q 136.72 1.89 137.60742 1.88672 Q 138.04 1.89 138.81055 2.05078" />
    <path d="M 138.81055 0 Q 137.81 -0.27 136.86914 -0.27344 Q 135.17 -0.27 134.3125 0.75195 Q 133.45 1.78 133.45117 3.66406" />
    <path d="M 140.75195 7.35547 L 140.75195 7.5332 Q 140.75 9.71 141.60645 11.44336 Q 142.46 13.18 143.98535 14.12305 Q 145.51 15.07 147.46484 15.06641 Q 150.49 15.07 152.35254 12.97461 Q 154.22 10.88 154.21875 7.41016 L 154.21875 7.23242 Q 154.22 5.07 153.3916 3.35645 Q 152.56 1.64 151.02637 0.68359 Q 149.49 -0.27 147.49219 -0.27344 Q 144.48 -0.27 142.61816 1.81836 Q 140.75 3.91 140.75195 7.35547 Z" />
    <path d="M 140.75195 7.5332 Q 140.75 9.71 141.60645 11.44336 Q 142.46 13.18 143.98535 14.12305 Q 145.51 15.07 147.46484 15.06641 Q 150.49 15.07 152.35254 12.97461 Q 154.22 10.88 154.21875 7.41016" />
    <path d="M 154.21875 7.23242 Q 154.22 5.07 153.3916 3.35645 Q 152.56 1.64 151.02637 0.68359 Q 149.49 -0.27 147.49219 -0.27344 Q 144.48 -0.27 142.61816 1.81836 Q 140.75 3.91 140.75195 7.35547" />
    <path d="M 143.29492 7.23242 Q 143.29 4.77 144.43652 3.28125 Q 145.58 1.79 147.49219 1.79102 Q 149.42 1.79 150.55469 3.30176 Q 151.69 4.81 151.68945 7.5332 Q 151.69 9.97 150.53418 11.47754 Q 149.38 12.99 147.46484 12.98828 Q 145.59 12.99 144.44336 11.49805 Q 143.29 10.01 143.29492 7.23242 Q 143.29 4.77 144.43652 3.28125 Q 145.58 1.79 147.49219 1.79102 Q 149.42 1.79 150.55469 3.30176 Q 151.69 4.81 151.68945 7.5332 Q 151.69 9.97 150.53418 11.47754 Q 149.38 12.99 147.46484 12.98828 Q 145.59 12.99 144.44336 11.49805 Q 143.29 10.01 143.29492 7.23242 Z" />
    <path d="M 163.70703 7.32813 L 163.70703 7.51953 Q 163.71 10.92 165.32031 12.99512 Q 166.93 15.07 169.54492 15.06641 Q 172.14 15.07 173.66016 13.28906 L 173.66016 21 L 176.18945 21 L 176.18945 0 L 173.86523 0 L 173.74219 1.58594 Q 172.22 -0.27 169.51758 -0.27344 Q 166.95 -0.27 165.32715 1.83203 Q 163.71 3.94 163.70703 7.32813 Z" />
    <path d="M 163.70703 7.51953 Q 163.71 10.92 165.32031 12.99512 Q 166.93 15.07 169.54492 15.06641 Q 172.14 15.07 173.66016 13.28906" />
    <path d="M 173.74219 1.58594 Q 172.22 -0.27 169.51758 -0.27344 Q 166.95 -0.27 165.32715 1.83203 Q 163.71 3.94 163.70703 7.32813" />
    <path d="M 166.23633 7.23242 Q 166.24 4.72 167.27539 3.29492 Q 168.31 1.87 170.14648 1.87305 Q 172.55 1.87 173.66016 4.0332 L 173.66016 10.82813 Q 172.53 12.92 170.17383 12.91992 Q 168.31 12.92 167.27539 11.48438 Q 166.24 10.05 166.23633 7.23242 Q 166.24 4.72 167.27539 3.29492 Q 168.31 1.87 170.14648 1.87305 Q 172.55 1.87 173.66016 4.0332" />
    <path d="M 173.66016 10.82813 Q 172.53 12.92 170.17383 12.91992 Q 168.31 12.92 167.27539 11.48438 Q 166.24 10.05 166.23633 7.23242" />
    <path d="M 182.86133 14.79297 L 182.86133 0 L 180.33203 0 L 180.33203 14.79297 L 182.86133 14.79297 Z" />
    <path d="M 180.12695 18.7168 Q 180.13 19.33 180.50293 19.75586 Q 180.88 20.18 181.61719 20.17969 Q 182.36 20.18 182.73828 19.75586 Q 183.12 19.33 183.12109 18.7168 Q 183.12 18.1 182.73828 17.69141 Q 182.36 17.28 181.61719 17.28125 Q 180.88 17.28 180.50293 17.69141 Q 180.13 18.1 180.12695 18.7168 Q 180.13 19.33 180.50293 19.75586 Q 180.88 20.18 181.61719 20.17969 Q 182.36 20.18 182.73828 19.75586 Q 183.12 19.33 183.12109 18.7168 Q 183.12 18.1 182.73828 17.69141 Q 182.36 17.28 181.61719 17.28125 Q 180.88 17.28 180.50293 17.69141 Q 180.13 18.1 180.12695 18.7168 Z" />
    <path d="M 195.52148 3.92383 Q 195.52 4.95 194.74902 5.5166 Q 193.98 6.08 192.05566 6.49414 Q 190.13 6.9 189.00684 7.47852 Q 187.88 8.05 187.33887 8.8457 Q 186.8 9.64 186.79883 10.73242 Q 186.8 12.55 188.33691 13.80859 Q 189.88 15.07 192.26758 15.06641 Q 194.78 15.07 196.34863 13.76758 Q 197.91 12.47 197.91406 10.44531 L 195.37109 10.44531 Q 195.37 11.48 194.48926 12.23633 Q 193.61 12.99 192.26758 12.98828 Q 190.89 12.99 190.10742 12.38672 Q 189.33 11.79 189.32813 10.81445 Q 189.33 9.9 190.05273 9.43359 Q 190.78 8.97 192.6709 8.54492 Q 194.56 8.12 195.74023 7.5332 Q 196.92 6.95 197.4834 6.11816 Q 198.05 5.29 198.05078 4.10156 Q 198.05 2.12 196.46484 0.92285 Q 194.88 -0.27 192.34961 -0.27344 Q 190.57 -0.27 189.20508 0.35547 Q 187.84 0.98 187.06543 2.1123 Q 186.29 3.24 186.29297 4.55273 L 188.82227 4.55273 Q 188.89 3.28 189.84082 2.53613 Q 190.79 1.79 192.34961 1.79102 Q 193.79 1.79 194.65332 2.37207 Q 195.52 2.95 195.52148 3.92383 Q 195.52 4.95 194.74902 5.5166 Q 193.98 6.08 192.05566 6.49414 Q 190.13 6.9 189.00684 7.47852 Q 187.88 8.05 187.33887 8.8457 Q 186.8 9.64 186.79883 10.73242 Q 186.8 12.55 188.33691 13.80859 Q 189.88 15.07 192.26758 15.06641 Q 194.78 15.07 196.34863 13.76758 Q 197.91 12.47 197.91406 10.44531" />
    <path d="M 195.37109 10.44531 Q 195.37 11.48 194.48926 12.23633 Q 193.61 12.99 192.26758 12.98828 Q 190.89 12.99 190.10742 12.38672 Q 189.33 11.79 189.32813 10.81445 Q 189.33 9.9 190.05273 9.43359 Q 190.78 8.97 192.6709 8.54492 Q 194.56 8.12 195.74023 7.5332 Q 196.92 6.95 197.4834 6.11816 Q 198.05 5.29 198.05078 4.10156 Q 198.05 2.12 196.46484 0.92285 Q 194.88 -0.27 192.34961 -0.27344 Q 190.57 -0.27 189.20508 0.35547 Q 187.84 0.98 187.06543 2.1123 Q 186.29 3.24 186.29297 4.55273" />
    <path d="M 188.82227 4.55273 Q 188.89 3.28 189.84082 2.53613 Q 190.79 1.79 192.34961 1.79102 Q 193.79 1.79 194.65332 2.37207 Q 195.52 2.95 195.52148 3.92383" />
    <path d="M 213.8418 7.46484 L 213.8418 7.23242 Q 213.84 3.86 212.29688 1.79102 Q 210.75 -0.27 208.11328 -0.27344 Q 205.42 -0.27 203.875 1.43555 L 203.875 -5.6875 L 201.3457 -5.6875 L 201.3457 14.79297 L 203.65625 14.79297 L 203.7793 13.15234 Q 205.32 15.07 208.07227 15.06641 Q 210.74 15.07 212.29004 13.05664 Q 213.84 11.05 213.8418 7.46484 Z" />
    <path d="M 213.8418 7.23242 Q 213.84 3.86 212.29688 1.79102 Q 210.75 -0.27 208.11328 -0.27344 Q 205.42 -0.27 203.875 1.43555" />
    <path d="M 203.7793 13.15234 Q 205.32 15.07 208.07227 15.06641 Q 210.74 15.07 212.29004 13.05664 Q 213.84 11.05 213.8418 7.46484" />
    <path d="M 211.3125 7.51953 Q 211.31 10.02 210.24609 11.4707 Q 209.18 12.92 207.32031 12.91992 Q 205.02 12.92 203.875 10.88281 L 203.875 3.81445 Q 205.01 1.79 207.34766 1.79102 Q 209.17 1.79 210.23926 3.2334 Q 211.31 4.68 211.3125 7.51953 Q 211.31 10.02 210.24609 11.4707 Q 209.18 12.92 207.32031 12.91992 Q 205.02 12.92 203.875 10.88281" />
    <path d="M 203.875 3.81445 Q 205.01 1.79 207.34766 1.79102 Q 209.17 1.79 210.23926 3.2334 Q 211.31 4.68 211.3125 7.51953" />
    <path d="M 219.80273 21 L 219.80273 0 L 217.27344 0 L 217.27344 21 L 219.80273 21 Z" />
    <path d="M 235.63477 0 L 232.98242 0 Q 232.76 0.44 232.62695 1.55859 Q 230.86 -0.27 228.41602 -0.27344 Q 226.23 -0.27 224.82715 0.96387 Q 223.43 2.2 223.42578 4.10156 Q 223.43 6.41 225.18262 7.69043 Q 226.94 8.97 230.125 8.96875 L 232.58594 8.96875 L 232.58594 10.13086 Q 232.59 11.46 231.79297 12.24316 Q 231 13.03 229.45508 13.0293 Q 228.1 13.03 227.18555 12.3457 Q 226.27 11.66 226.26953 10.69141 L 223.72656 10.69141 Q 223.73 11.8 224.5127 12.83105 Q 225.3 13.86 226.64551 14.46484 Q 227.99 15.07 229.60547 15.06641 Q 232.16 15.07 233.61133 13.78809 Q 235.06 12.51 235.11523 10.26758 L 235.11523 3.45898 Q 235.12 1.42 235.63477 0.21875 L 235.63477 0 Z" />
    <path d="M 232.98242 0 Q 232.76 0.44 232.62695 1.55859 Q 230.86 -0.27 228.41602 -0.27344 Q 226.23 -0.27 224.82715 0.96387 Q 223.43 2.2 223.42578 4.10156 Q 223.43 6.41 225.18262 7.69043 Q 226.94 8.97 230.125 8.96875" />
    <path d="M 232.58594 10.13086 Q 232.59 11.46 231.79297 12.24316 Q 231 13.03 229.45508 13.0293 Q 228.1 13.03 227.18555 12.3457 Q 226.27 11.66 226.26953 10.69141" />
    <path d="M 223.72656 10.69141 Q 223.73 11.8 224.5127 12.83105 Q 225.3 13.86 226.64551 14.46484 Q 227.99 15.07 229.60547 15.06641 Q 232.16 15.07 233.61133 13.78809 Q 235.06 12.51 235.11523 10.26758" />
    <path d="M 235.11523 3.45898 Q 235.12 1.42 235.63477 0.21875" />
    <path d="M 228.78516 1.92773 Q 229.97 1.93 231.04102 2.54297 Q 232.11 3.16 232.58594 4.14258 L 232.58594 7.17773 L 230.60352 7.17773 Q 225.96 7.18 225.95508 4.45703 Q 225.96 3.27 226.74805 2.59766 Q 227.54 1.93 228.78516 1.92773 Q 229.97 1.93 231.04102 2.54297 Q 232.11 3.16 232.58594 4.14258" />
    <path d="M 230.60352 7.17773 Q 225.96 7.18 225.95508 4.45703 Q 225.96 3.27 226.74805 2.59766 Q 227.54 1.93 228.78516 1.92773" />
    <path d="M 240.02344 14.79297 L 243.71484 3.70508 L 247.16016 14.79297 L 249.86719 14.79297 L 243.91992 -2.2832 Q 242.54 -5.97 239.53125 -5.97461 L 239.05273 -5.93359 L 238.10938 -5.75586 L 238.10938 -3.70508 L 238.79297 -3.75977 Q 240.08 -3.76 240.7959 -3.24023 Q 241.51 -2.72 241.97852 -1.33984 L 242.53906 0.16406 L 237.26172 14.79297 L 240.02344 14.79297 Z" />
    <path d="M 243.91992 -2.2832 Q 242.54 -5.97 239.53125 -5.97461" />
    <path d="M 238.79297 -3.75977 Q 240.08 -3.76 240.7959 -3.24023 Q 241.51 -2.72 241.97852 -1.33984" />
</svg>